<svg xmlns="http://www.w3.org/2000/svg" xmlns:xlink="http://www.w3.org/1999/xlink" width="41" height="41" viewBox="0 0 41 41">
  <defs>
    <filter id="close_circle" x="0" y="0" width="41" height="41" filterUnits="userSpaceOnUse">
      <feOffset dy="2" input="SourceAlpha"/>
      <feGaussianBlur stdDeviation="2.5" result="blur"/>
      <feFlood flood-opacity="0.161"/>
      <feComposite operator="in" in2="blur"/>
      <feComposite in="SourceGraphic"/>
    </filter>
  </defs>
  <g transform="matrix(1, 0, 0, 1, 0, 0)" filter="url(#close_circle)">
    <path id="close_circle-2" data-name="close circle" d="M16,3A13,13,0,1,0,29,16,13.015,13.015,0,0,0,16,3Zm0,2A11,11,0,1,1,5,16,10.985,10.985,0,0,1,16,5Zm-3.781,5.781-1.437,1.438L14.563,16l-3.781,3.781,1.438,1.438L16,17.438l3.781,3.781,1.438-1.437L17.438,16l3.781-3.781-1.437-1.437L16,14.563Z" transform="translate(4.5 2.5)"/>
  </g>
</svg>
