<svg xmlns="http://www.w3.org/2000/svg" width="19.017" height="19.024" viewBox="0 0 19.017 19.024">
  <path id="edit" d="M20.668,4.031a2.342,2.342,0,0,0-1.662.694l-7.863,7.838-.174.174-.05.248-.546,2.778-.248,1.166,1.166-.248,2.778-.546.248-.05.174-.174,7.838-7.863a2.356,2.356,0,0,0-1.662-4.018Zm0,1.538a.788.788,0,0,1,.546.273.693.693,0,0,1,0,1.091l-7.689,7.689-1.364.273.273-1.364,7.689-7.689A.788.788,0,0,1,20.668,5.569ZM4,7.181V23.055H19.874V12.588l-1.587,1.587v7.292H5.587V8.769h7.292l1.587-1.587Z" transform="translate(-4 -4.031)"/>
</svg>
