<svg xmlns="http://www.w3.org/2000/svg" width="21.83" height="20.108" viewBox="0 0 21.83 20.108">
  <path id="diamond" d="M8.885,6l-.278.333L4.163,11.666l-.444.528.444.583L13.94,25.22l.694.889.694-.889L25.1,12.777l.444-.583-.444-.528L20.661,6.333,20.383,6H8.885Zm.833,1.778h3.25l-2.389,3.555H6.746Zm6.582,0h3.25l2.972,3.555H18.689Zm-1.666.75,1.889,2.805H12.745ZM6.663,13.11h3.749l2.111,7.471Zm5.583,0h4.749l-2.361,8.277Zm6.61,0H22.6l-5.86,7.443Z" transform="translate(-3.719 -6)" fill="#22a7f9"/>
</svg>
