<svg xmlns="http://www.w3.org/2000/svg" width="69" height="69" viewBox="0 0 69 69">
  <g id="Group_353" data-name="Group 353" transform="translate(-4592 -289)">
    <circle id="Ellipse_33" data-name="Ellipse 33" cx="34.5" cy="34.5" r="34.5" transform="translate(4592 289)" fill="#f2f2f2"/>
    <g id="Group_352" data-name="Group 352" transform="translate(4 4)">
      <g id="Rectangle_684" data-name="Rectangle 684" transform="translate(4618.79 308)" fill="#f0f0f0" stroke="#b9b9b9" stroke-width="1">
        <rect width="11.395" height="8.573" rx="4.287" stroke="none"/>
        <rect x="0.5" y="0.5" width="10.395" height="7.573" rx="3.787" fill="none"/>
      </g>
      <g id="Rectangle_683" data-name="Rectangle 683" transform="translate(4606 312.108)" fill="#fff" stroke="#b9b9b9" stroke-width="1">
        <rect width="33.688" height="19.719" rx="5" stroke="none"/>
        <rect x="0.5" y="0.5" width="32.688" height="18.719" rx="4.5" fill="none"/>
      </g>
      <g id="Path_359" data-name="Path 359" transform="translate(4613.395 316.216)" fill="#f2f2f2">
        <path d="M 6.573248386383057 12.64649868011475 C 3.224448442459106 12.64649868011475 0.4999983906745911 9.922048568725586 0.4999983906745911 6.573248386383057 C 0.4999983906745911 3.224448442459106 3.224448442459106 0.4999983906745911 6.573248386383057 0.4999983906745911 C 9.922048568725586 0.4999983906745911 12.64649868011475 3.224448442459106 12.64649868011475 6.573248386383057 C 12.64649868011475 9.922048568725586 9.922048568725586 12.64649868011475 6.573248386383057 12.64649868011475 Z" stroke="none"/>
        <path d="M 6.573248386383057 0.9999980926513672 C 3.500148773193359 0.9999980926513672 0.9999980926513672 3.500148773193359 0.9999980926513672 6.573248386383057 C 0.9999980926513672 9.64634895324707 3.500148773193359 12.14649868011475 6.573248386383057 12.14649868011475 C 9.64634895324707 12.14649868011475 12.14649868011475 9.64634895324707 12.14649868011475 6.573248386383057 C 12.14649868011475 3.500148773193359 9.64634895324707 0.9999980926513672 6.573248386383057 0.9999980926513672 M 6.573248386383057 -1.9073486328125e-06 C 10.20354843139648 -1.9073486328125e-06 13.14649868011475 2.942948341369629 13.14649868011475 6.573248386383057 C 13.14649868011475 10.20354843139648 10.20354843139648 13.14649868011475 6.573248386383057 13.14649868011475 C 2.942948341369629 13.14649868011475 -1.9073486328125e-06 10.20354843139648 -1.9073486328125e-06 6.573248386383057 C -1.9073486328125e-06 2.942948341369629 2.942948341369629 -1.9073486328125e-06 6.573248386383057 -1.9073486328125e-06 Z" stroke="none" fill="#b9b9b9"/>
      </g>
      <path id="Path_357" data-name="Path 357" d="M4630.25,304.965c2.837,2.49,2.029,17.449,0,18.482a60.3,60.3,0,0,1,6.481,0L4635.7,322.3l-1-1.6V306.792l1.616-1.549.72-.649H4634.4S4633.467,304.321,4630.25,304.965Z" transform="translate(-3 8)" fill="#f0f0f0"/>
      <g id="Path_356" data-name="Path 356" transform="translate(4615.86 318.681)" fill="#eaeaea">
        <path d="M 4.108280181884766 8.066300392150879 C 1.925680160522461 8.066300392150879 0.1500001847743988 6.290679931640625 0.1500001847743988 4.108150005340576 C 0.1500001847743988 1.925619959831238 1.925680160522461 0.1500000059604645 4.108280181884766 0.1500000059604645 C 6.29088020324707 0.1500000059604645 8.066559791564941 1.925619959831238 8.066559791564941 4.108150005340576 C 8.066559791564941 6.290679931640625 6.29088020324707 8.066300392150879 4.108280181884766 8.066300392150879 Z" stroke="none"/>
        <path d="M 4.108280181884766 0.3000001907348633 C 2.008389949798584 0.3000001907348633 0.3000001907348633 2.00832986831665 0.3000001907348633 4.108150005340576 C 0.3000001907348633 6.207969665527344 2.008389949798584 7.916299819946289 4.108280181884766 7.916299819946289 C 6.208169937133789 7.916299819946289 7.916560173034668 6.207969665527344 7.916560173034668 4.108150005340576 C 7.916560173034668 2.00832986831665 6.208169937133789 0.3000001907348633 4.108280181884766 0.3000001907348633 M 4.108280181884766 0 C 6.377220153808594 0 8.216560363769531 1.839280128479004 8.216560363769531 4.108150005340576 C 8.216560363769531 6.377019882202148 6.377220153808594 8.216300010681152 4.108280181884766 8.216300010681152 C 1.839340209960938 8.216300010681152 0 6.377019882202148 0 4.108150005340576 C 0 1.839280128479004 1.839340209960938 0 4.108280181884766 0 Z" stroke="none" fill="#b9b9b9"/>
      </g>
      <g id="Rectangle_687" data-name="Rectangle 687" transform="translate(4631 312.108)" fill="none" stroke="#b9b9b9" stroke-width="1">
        <rect width="8.688" height="19.719" rx="4.344" stroke="none"/>
        <rect x="0.5" y="0.5" width="7.688" height="18.719" rx="3.844" fill="none"/>
      </g>
      <g id="Rectangle_686" data-name="Rectangle 686" transform="translate(4633.65 315.395)" fill="#eaeaea" stroke="#b9b9b9" stroke-width="0.3">
        <rect width="3.752" height="2.108" rx="1" stroke="none"/>
        <rect x="0.15" y="0.15" width="3.452" height="1.808" rx="0.85" fill="none"/>
      </g>
      <g id="Rectangle_688" data-name="Rectangle 688" transform="translate(4606 312.108)" fill="none" stroke="#b9b9b9" stroke-width="1">
        <rect width="33.688" height="19.719" rx="5" stroke="none"/>
        <rect x="0.5" y="0.5" width="32.688" height="18.719" rx="4.5" fill="none"/>
      </g>
      <path id="Path_358" data-name="Path 358" d="M3.1,0A3.1,3.1,0,1,1,0,3.1,3.1,3.1,0,0,1,3.1,0Z" transform="translate(4616.86 319.681)" fill="#bebebe"/>
    </g>
  </g>
</svg>
