<svg xmlns="http://www.w3.org/2000/svg" width="11.441" height="11.45" viewBox="0 0 11.441 11.45">
  <path id="pencil" d="M13.619,4.031a1.517,1.517,0,0,0-1.077.457l-.044.044-.3-.28-.325.325L4.516,11.94l-.1.1-.03.148-.516,2.6-.148.693.693-.148,2.6-.516.148-.03.1-.1,7.363-7.363L14.947,7l-.28-.28.03-.03.015-.03a1.535,1.535,0,0,0,0-2.169A1.551,1.551,0,0,0,13.619,4.031Zm0,.93a.615.615,0,0,1,.428.192.563.563,0,0,1,0,.841L14,6.038,13.162,5.2l.044-.044A.583.583,0,0,1,13.619,4.961Zm-1.4.62,1.4,1.4-.679.693L11.524,6.259ZM10.875,6.938l1.387,1.387L7.334,13.268l-.192-.856-.059-.3-.3-.059-.856-.192Zm-5.622,5.74,1.033.236.236,1.033-.959.192-.5-.5Z" transform="translate(-3.719 -4.031)" fill="#707070"/>
</svg>
