<svg xmlns="http://www.w3.org/2000/svg" width="14.882" height="17.859" viewBox="0 0 14.882 17.859">
  <path id="trash" d="M12.953,4a1.433,1.433,0,0,0-1.488,1.488v.744H7V7.721h.744V19.626a2.243,2.243,0,0,0,2.232,2.232h8.929a2.243,2.243,0,0,0,2.232-2.232V7.721h.744V6.232H17.417V5.488A1.433,1.433,0,0,0,15.929,4Zm0,1.488h2.976v.744H12.953ZM9.232,7.721H19.65V19.626a.742.742,0,0,1-.744.744H9.976a.742.742,0,0,1-.744-.744Zm1.488,2.232v8.185h1.488V9.953Zm2.976,0v8.185h1.488V9.953Zm2.976,0v8.185h1.488V9.953Z" transform="translate(-7 -4)" fill="#fff"/>
</svg>
