<svg xmlns="http://www.w3.org/2000/svg" width="29.045" height="17.427" viewBox="0 0 29.045 17.427">
  <path id="users" d="M8.745,7A5.8,5.8,0,0,0,5.327,17.5,7.75,7.75,0,0,0,1,24.427H2.936a5.809,5.809,0,0,1,11.618,0h1.936a5.809,5.809,0,1,1,11.618,0h1.936A7.75,7.75,0,0,0,25.719,17.5a5.809,5.809,0,1,0-6.838,0,7.8,7.8,0,0,0-3.358,3.177A7.8,7.8,0,0,0,12.164,17.5,5.8,5.8,0,0,0,8.745,7Zm0,1.936a3.873,3.873,0,1,1-3.873,3.873A3.858,3.858,0,0,1,8.745,8.936Zm13.554,0a3.873,3.873,0,1,1-3.873,3.873A3.858,3.858,0,0,1,22.3,8.936Z" transform="translate(-1 -7)" fill="#f29681"/>
</svg>
