<svg xmlns="http://www.w3.org/2000/svg" width="16.638" height="9.983" viewBox="0 0 16.638 9.983">
  <path id="users" d="M5.437,7a3.325,3.325,0,0,0-1.958,6.014A4.439,4.439,0,0,0,1,16.983H2.109a3.328,3.328,0,1,1,6.655,0H9.874a3.328,3.328,0,1,1,6.655,0h1.109a4.439,4.439,0,0,0-2.478-3.969,3.328,3.328,0,1,0-3.917,0,4.468,4.468,0,0,0-1.924,1.82A4.468,4.468,0,0,0,7.4,13.014,3.325,3.325,0,0,0,5.437,7Zm0,1.109a2.218,2.218,0,1,1-2.218,2.218A2.21,2.21,0,0,1,5.437,8.109Zm7.764,0a2.218,2.218,0,1,1-2.218,2.218A2.21,2.21,0,0,1,13.2,8.109Z" transform="translate(-1 -7)" fill="#303030"/>
</svg>
